<svg aria-hidden="true" style="position: absolute; width: 0; height: 0; overflow: hidden;" version="1.1" xmlns="http://www.w3.org/2000/svg" xmlns:xlink="http://www.w3.org/1999/xlink">
<defs>
<symbol id="icon-amex" viewBox="0 0 51 32">
<path fill="#000" style="fill: var(--color1, #000)" opacity="0.07" d="M46.667 0h-42.667c-2.267 0-4 1.733-4 4v24c0 2.267 1.867 4 4 4h42.667c2.267 0 4-1.733 4-4v-24c0-2.267-1.867-4-4-4z"></path>
<path fill="#006fcf" style="fill: var(--color2, #006fcf)" d="M46.667 1.333c1.467 0 2.667 1.2 2.667 2.667v24c0 1.467-1.2 2.667-2.667 2.667h-42.667c-1.467 0-2.667-1.2-2.667-2.667v-24c0-1.467 1.2-2.667 2.667-2.667h42.667z"></path>
<path fill="#fff" style="fill: var(--color3, #fff)" d="M11.961 13.691l1.032 2.501h-2.056l1.024-2.501zM33.395 13.795h-3.969v1.103h3.905v1.652h-3.897v1.229h3.969v0.985l2.769-2.993-2.769-3.12-0.008 1.144zM14.644 10.675h5.327l1.183 2.58 1.096-2.588h13.827l1.437 1.587 1.487-1.587h6.351l-4.692 5.136 4.644 5.104h-6.445l-1.437-1.587-1.5 1.587h-22.547l-0.659-1.587h-1.507l-0.66 1.587h-5.215l4.381-10.24h4.573l0.356 0.008zM26.195 12.112h-2.985l-2 4.715-2.167-4.715h-2.963v6.413l-2.747-6.413h-2.657l-3.176 7.349h2.073l0.659-1.587h3.461l0.659 1.587h3.627v-5.247l2.335 5.255h1.587l2.32-5.239v5.24h1.944l0.032-7.36-0.001 0.001zM38.648 15.803l3.375-3.691h-2.429l-2.135 2.301-2.064-2.301h-7.859v7.357h7.747l2.152-2.317 2.064 2.317h2.5l-3.351-3.667z"></path>
</symbol>
<symbol id="icon-arrow" viewBox="0 0 32 32">
<path d="M10.24 31.040c-0.58-0.002-1.050-0.472-1.050-1.053 0-0.108 0.016-0.213 0.047-0.311l-0.002 0.007 2.902-10.163h-4.355c-0.011 0-0.023 0.001-0.035 0.001-0.26 0-0.497-0.101-0.672-0.267l0 0c-0.218-0.193-0.356-0.473-0.356-0.786 0-0.263 0.097-0.503 0.257-0.687l-0.001 0.001 13.562-16.442c0.194-0.233 0.484-0.38 0.808-0.38 0.095 0 0.187 0.013 0.274 0.036l-0.007-0.002c0.274 0.067 0.5 0.238 0.637 0.469l0.003 0.005c0.143 0.237 0.187 0.521 0.122 0.79l-2.586 11.459h4.442c0.579 0.004 1.046 0.474 1.046 1.053 0 0.262-0.096 0.501-0.254 0.686l0.001-0.001v0.016l-13.997 15.216c-0.191 0.216-0.469 0.352-0.778 0.352-0.003 0-0.006 0-0.009-0h0zM12.989 18.24c0.353 0.001 0.639 0.287 0.639 0.64 0 0.063-0.009 0.123-0.026 0.181l0.001-0.005-2.874 10.064 12.979-14.122h-4.72c-0.005 0-0.010 0-0.016 0-0.353 0-0.64-0.287-0.64-0.64 0-0.050 0.006-0.099 0.017-0.145l-0.001 0.004 2.56-11.328-12.653 15.35h4.733z"></path>
</symbol>
<symbol id="icon-basket" viewBox="0 0 32 32">
<path d="M15.216 23.662c-1.414 0-2.56 1.146-2.56 2.56s1.146 2.56 2.56 2.56v0c1.414 0 2.56-1.146 2.56-2.56s-1.146-2.56-2.56-2.56v0zM15.216 27.502c-0.707 0-1.28-0.573-1.28-1.28s0.573-1.28 1.28-1.28c0.707 0 1.28 0.573 1.28 1.28v0c-0.006 0.702-0.577 1.269-1.28 1.269-0 0-0 0-0 0v0 0.009zM24.583 23.662c-1.414 0-2.56 1.146-2.56 2.56s1.146 2.56 2.56 2.56v0c1.414 0 2.56-1.146 2.56-2.56s-1.146-2.56-2.56-2.56v0zM24.583 27.502c-0.707 0-1.28-0.573-1.28-1.28s0.573-1.28 1.28-1.28c0.707 0 1.28 0.573 1.28 1.28v0c-0.006 0.702-0.577 1.269-1.28 1.269-0 0-0 0-0 0v0 0.009zM28.4 19.76l2.588-11.559c0.032-0.136 0.050-0.293 0.050-0.453 0-1.14-0.924-2.064-2.064-2.064-0.001 0-0.002 0-0.003 0h-20.181l-0.4-1.943c-0.062-0.294-0.319-0.512-0.627-0.512-0.005 0-0.009 0-0.014 0h-6.15c-0.353 0-0.64 0.287-0.64 0.64s0.287 0.64 0.64 0.64v0h5.644l0.396 1.943 2.72 13.296 0.612 2.972c0.062 0.294 0.319 0.512 0.627 0.512 0.005 0 0.009-0 0.014-0h17.866c0.353 0 0.64-0.287 0.64-0.64s-0.287-0.64-0.64-0.64v0h-17.358l-0.348-1.7h16c0.001 0 0.003 0 0.005 0 0.301 0 0.554-0.208 0.622-0.488l0.001-0.004zM11.52 18.978l-2.468-12.012h19.92c0.002-0 0.004-0 0.006-0 0.432 0 0.782 0.35 0.782 0.782 0 0.063-0.007 0.124-0.022 0.183l0.001-0.005-2.48 11.056h-15.74z"></path>
</symbol>
<symbol id="icon-gpay" viewBox="0 0 51 32">
<path fill="#000" style="fill: var(--color1, #000)" opacity="0.07" d="M46.667 0h-42.667c-2.267 0-4 1.733-4 4v24c0 2.267 1.867 4 4 4h42.667c2.267 0 4-1.733 4-4v-24c0-2.267-1.867-4-4-4z"></path>
<path fill="#fff" style="fill: var(--color3, #fff)" d="M46.667 1.333c1.467 0 2.667 1.2 2.667 2.667v24c0 1.467-1.2 2.667-2.667 2.667h-42.667c-1.467 0-2.667-1.2-2.667-2.667v-24c0-1.467 1.2-2.667 2.667-2.667h42.667z"></path>
<path fill="#5f6368" style="fill: var(--color4, #5f6368)" d="M24.124 15.968v4.267h-1.357v-10.533h3.588c0.016-0 0.036-0 0.055-0 0.885 0 1.687 0.352 2.275 0.924l-0.001-0.001c0.595 0.556 0.966 1.346 0.966 2.223 0 0.803-0.312 1.534-0.821 2.078l0.002-0.002-0.147 0.155c-0.627 0.596-1.464 0.92-2.329 0.899l-2.231-0.008zM24.124 10.992v3.717h2.264c0.017 0.001 0.036 0.001 0.056 0.001 0.884 0 1.619-0.638 1.769-1.479l0.002-0.011c0.019-0.1 0.030-0.216 0.030-0.333 0-1.024-0.83-1.853-1.853-1.853-0.001 0-0.003 0-0.004 0h0l-2.264-0.040zM32.769 12.789c0.867-0.040 1.715 0.251 2.371 0.817 0.593 0.573 0.909 1.373 0.867 2.2v4.444h-1.293v-1.021h-0.064c-0.459 0.749-1.273 1.241-2.202 1.241-0.010 0-0.020-0-0.030-0h0.002c-0.028 0.001-0.061 0.002-0.094 0.002-0.729 0-1.396-0.27-1.904-0.715l0.003 0.003c-0.501-0.411-0.818-1.030-0.818-1.722 0-0.015 0-0.030 0-0.045l-0 0.002c-0.001-0.029-0.002-0.063-0.002-0.097 0-0.682 0.319-1.289 0.815-1.681l0.005-0.003c0.593-0.431 1.335-0.689 2.138-0.689 0.044 0 0.088 0.001 0.132 0.002l-0.006-0c0.689-0.027 1.373 0.124 1.987 0.441v-0.277c0-0.008 0-0.018 0-0.027 0-0.472-0.216-0.893-0.554-1.171l-0.003-0.002c-0.334-0.305-0.781-0.492-1.272-0.492-0.012 0-0.024 0-0.036 0l0.002-0c-0.006-0-0.012-0-0.019-0-0.728 0-1.368 0.378-1.735 0.948l-0.005 0.008-1.193-0.752c0.607-0.862 1.599-1.419 2.72-1.419 0.066 0 0.133 0.002 0.198 0.006l-0.009-0zM31.053 18.027c-0 0.006-0 0.014-0 0.021 0 0.355 0.176 0.669 0.446 0.86l0.003 0.002c0.297 0.235 0.667 0.36 1.047 0.351 0.572 0 1.12-0.227 1.528-0.629 0.407-0.381 0.637-0.913 0.637-1.471-0.44-0.316-0.988-0.505-1.581-0.505-0.065 0-0.129 0.002-0.192 0.007l0.009-0c-0.027-0.001-0.058-0.002-0.090-0.002-0.479 0-0.924 0.147-1.291 0.399l0.008-0.005c-0.315 0.214-0.52 0.569-0.523 0.973v0zM43.435 13.027l-4.52 10.387h-1.397l1.708-3.637-2.965-6.749h1.471l2.149 5.18 2.092-5.18h1.463z"></path>
<path fill="#4285f4" style="fill: var(--color5, #4285f4)" d="M18.648 15.045c0-0.411-0.032-0.821-0.097-1.227h-5.72v2.329h3.268c-0.142 0.768-0.58 1.413-1.19 1.824l-0.010 0.006v1.512h1.952c1.111-1.076 1.801-2.581 1.801-4.248 0-0.069-0.001-0.139-0.004-0.208l0 0.010z"></path>
<path fill="#34a853" style="fill: var(--color6, #34a853)" d="M12.839 20.96c0.048 0.001 0.104 0.002 0.161 0.002 1.481 0 2.833-0.555 3.858-1.469l-0.006 0.005-1.955-1.52c-0.56 0.364-1.245 0.58-1.98 0.58-1.608 0-2.975-1.035-3.47-2.475l-0.008-0.026h-2.003v1.56c1.013 1.997 3.051 3.342 5.403 3.343h0z"></path>
<path fill="#fbbc04" style="fill: var(--color7, #fbbc04)" d="M9.439 16.067c-0.121-0.345-0.19-0.743-0.19-1.157s0.070-0.812 0.198-1.182l-0.008 0.025v-1.56h-2.003c-0.409 0.79-0.649 1.726-0.649 2.717s0.24 1.926 0.665 2.75l-0.016-0.034 2.003-1.56z"></path>
<path fill="#ea4335" style="fill: var(--color8, #ea4335)" d="M12.839 11.253c0.018-0 0.039-0.001 0.060-0.001 0.877 0 1.674 0.346 2.261 0.908l-0.001-0.001 1.733-1.724c-1.040-0.978-2.443-1.578-3.988-1.578-0.035 0-0.070 0-0.104 0.001l0.005-0c-2.337 0.012-4.359 1.35-5.354 3.299l-0.016 0.034 2.003 1.561c0.482-1.45 1.818-2.481 3.398-2.5l0.002-0z"></path>
</symbol>
<symbol id="icon-klarna" viewBox="0 0 51 32">
<path fill="#ffb3c7" style="fill: var(--color9, #ffb3c7)" d="M46.667 0h-42.667c-2.267 0-4 1.733-4 4v24c0 2.267 1.867 4 4 4h42.667c2.267 0 4-1.733 4-4v-24c0-2.267-1.867-4-4-4z"></path>
<path fill="#ffb3c7" style="fill: var(--color9, #ffb3c7)" d="M46.667 1.333c1.467 0 2.667 1.2 2.667 2.667v24c0 1.467-1.2 2.667-2.667 2.667h-42.667c-1.467 0-2.667-1.2-2.667-2.667v-24c0-1.467 1.2-2.667 2.667-2.667h42.667z"></path>
<path fill="#0a0b09" style="fill: var(--color10, #0a0b09)" d="M45.489 17.579c-0.649 0-1.176 0.533-1.176 1.189 0 0.657 0.527 1.191 1.176 1.191 0.651 0 1.177-0.533 1.177-1.191 0-0.002 0-0.003 0-0.005 0-0.652-0.526-1.18-1.177-1.184h-0zM41.619 16.659c0-0.901-0.76-1.631-1.699-1.631s-1.699 0.729-1.699 1.629c0 0.9 0.76 1.631 1.699 1.631s1.699-0.731 1.699-1.631v0.001zM41.625 13.491h1.875v6.333h-1.875v-0.404c-0.547 0.379-1.195 0.58-1.859 0.58-1.825 0-3.304-1.496-3.304-3.343 0-1.845 1.48-3.341 3.304-3.341 0.689 0 1.328 0.213 1.859 0.58v-0.405zM26.621 14.316v-0.825h-1.92v6.333h1.924v-2.956c0-0.999 1.069-1.533 1.812-1.533h0.021v-1.843c-0.76 0-1.461 0.329-1.837 0.824zM21.84 16.657c0-0.9-0.76-1.629-1.699-1.629-0.937 0-1.699 0.729-1.699 1.629s0.76 1.631 1.699 1.631c0.939 0 1.699-0.731 1.699-1.631zM21.847 13.491h1.875v6.333h-1.875v-0.404c-0.547 0.379-1.196 0.581-1.86 0.58-1.824 0-3.304-1.496-3.304-3.343 0-1.845 1.48-3.341 3.304-3.341 0.689 0 1.329 0.213 1.859 0.58v-0.405h0.001zM33.131 13.32c-0.748 0-1.457 0.236-1.931 0.884v-0.713h-1.867v6.333h1.889v-3.328c0-0.963 0.639-1.435 1.407-1.435 0.824 0 1.297 0.499 1.297 1.421v3.343h1.873v-4.028c0-1.475-1.16-2.477-2.669-2.477zM13.953 19.827h1.963v-9.16h-1.963v9.16zM5.333 19.827h2.077v-9.16h-2.077v9.16zM12.6 10.667c0 0.012 0 0.026 0 0.040 0 2.013-0.811 3.836-2.125 5.16l0.001-0.001 2.872 3.96h-2.567l-3.121-4.304 0.805-0.611c1.283-0.974 2.103-2.5 2.103-4.217 0-0.010-0-0.020-0-0.030v0.002h2.032z"></path>
</symbol>
<symbol id="icon-mastercard" viewBox="0 0 51 32">
<path fill="#000" style="fill: var(--color1, #000)" opacity="0.07" d="M46.667 0h-42.667c-2.267 0-4 1.733-4 4v24c0 2.267 1.867 4 4 4h42.667c2.267 0 4-1.733 4-4v-24c0-2.267-1.867-4-4-4z"></path>
<path fill="#fff" style="fill: var(--color3, #fff)" d="M46.667 1.333c1.467 0 2.667 1.2 2.667 2.667v24c0 1.467-1.2 2.667-2.667 2.667h-42.667c-1.467 0-2.667-1.2-2.667-2.667v-24c0-1.467 1.2-2.667 2.667-2.667h42.667z"></path>
<path fill="#eb001b" style="fill: var(--color11, #eb001b)" d="M20 25.333c5.155 0 9.333-4.179 9.333-9.333s-4.179-9.333-9.333-9.333v0c-5.155 0-9.333 4.179-9.333 9.333s4.179 9.333 9.333 9.333v0z"></path>
<path fill="#f79e1b" style="fill: var(--color12, #f79e1b)" d="M30.667 25.333c5.155 0 9.333-4.179 9.333-9.333s-4.179-9.333-9.333-9.333v0c-5.155 0-9.333 4.179-9.333 9.333s4.179 9.333 9.333 9.333v0z"></path>
<path fill="#ff5f00" style="fill: var(--color13, #ff5f00)" d="M29.333 16c0-3.2-1.6-6-4-7.6-2.4 1.733-4 4.533-4 7.6s1.6 6 4 7.6c2.4-1.6 4-4.4 4-7.6z"></path>
</symbol>
<symbol id="icon-od" viewBox="0 0 51 32">
<path fill="#000" style="fill: var(--color1, #000)" opacity="0.07" d="M46.667 0h-42.667c-2.267 0-4 1.733-4 4v24c0 2.267 1.867 4 4 4h42.667c2.267 0 4-1.733 4-4v-24c0-2.267-1.867-4-4-4z"></path>
<path fill="#fff" style="fill: var(--color3, #fff)" d="M46.667 1.333c1.467 0 2.667 1.2 2.667 2.667v24c0 1.467-1.2 2.667-2.667 2.667h-42.667c-1.467 0-2.667-1.2-2.667-2.667v-24c0-1.467 1.2-2.667 2.667-2.667h42.667z"></path>
<path fill="#3086c8" style="fill: var(--color14, #3086c8)" d="M16 16v4.933c0 0.4-0.267 0.4-0.667 0.267-2.533-1.067-4-4.4-3.067-7.2 0.533-1.467 1.6-2.667 3.067-3.2 0.533-0.267 0.667-0.133 0.667 0.267v4.933zM18.667 16v-4.933c0-0.4 0-0.4 0.4-0.267 2.8 1.067 4.267 4.4 3.2 7.2-0.533 1.467-1.6 2.667-3.067 3.2-0.533 0.267-0.533 0.133-0.533-0.267v-4.933zM28.267 6.667h-10.933c5.067 0 9.067 4.133 9.067 9.333s-4 9.333-9.067 9.333h10.933c5.067 0 9.067-4.133 9.067-9.333s-4-9.333-9.067-9.333z"></path>
</symbol>
<symbol id="icon-opay" viewBox="0 0 51 32">
<path fill="#000" style="fill: var(--color1, #000)" opacity="0.07" d="M46.667 0h-42.667c-2.267 0-4 1.733-4 4v24c0 2.267 1.867 4 4 4h42.667c2.267 0 4-1.733 4-4v-24c0-2.267-1.867-4-4-4z"></path>
<path fill="#5a31f4" style="fill: var(--color15, #5a31f4)" d="M46.667 1.333c1.467 0 2.667 1.2 2.667 2.667v24c0 1.467-1.2 2.667-2.667 2.667h-42.667c-1.467 0-2.667-1.2-2.667-2.667v-24c0-1.467 1.2-2.667 2.667-2.667h42.667z"></path>
<path fill="#fff" style="fill: var(--color3, #fff)" d="M28.509 12.951c0 2.224-1.569 3.811-3.761 3.811h-2.065c-0.095 0.001-0.172 0.078-0.173 0.173v2.921c0 0.072-0.044 0.133-0.106 0.16l-0.001 0c-0.020 0.008-0.043 0.013-0.067 0.013v0h-1.445c-0.096 0-0.173-0.078-0.173-0.173v0-10.543c0-0.001-0-0.002-0-0.003 0-0.071 0.044-0.132 0.106-0.157l0.001-0c0.020-0.008 0.042-0.013 0.066-0.013 0 0 0 0 0 0v0h3.867c2.183 0 3.752 1.587 3.752 3.811zM26.707 12.951c0-1.277-0.877-2.211-2.067-2.211h-1.957c-0.096 0-0.173 0.078-0.173 0.173v0 4.067c0 0.001 0 0.001 0 0.002 0 0.047 0.019 0.090 0.051 0.121l0 0c0.031 0.031 0.074 0.051 0.121 0.051 0 0 0.001 0 0.001 0h1.957c1.189 0.007 2.067-0.927 2.067-2.203zM28.939 18.005c-0.001-0.027-0.002-0.059-0.002-0.091 0-0.686 0.339-1.292 0.858-1.661l0.006-0.004c0.564-0.421 1.445-0.64 2.74-0.685l1.377-0.048v-0.404c0-0.809-0.547-1.151-1.424-1.151s-1.433 0.308-1.56 0.813c-0.022 0.070-0.086 0.12-0.162 0.12-0.002 0-0.003-0-0.005-0h-1.362c-0 0-0.001 0-0.001 0-0.078 0-0.144-0.051-0.166-0.121l-0-0.001c-0.005-0.014-0.007-0.031-0.007-0.048 0-0.009 0.001-0.017 0.002-0.026l-0 0.001c0.203-1.197 1.205-2.107 3.325-2.107 2.256 0 3.071 1.044 3.071 3.035v4.229c0 0 0 0 0 0 0 0.096-0.078 0.173-0.173 0.173-0.001 0-0.002 0-0.003-0h-1.373c-0.096 0-0.173-0.078-0.173-0.173v0-0.316c0-0.001 0-0.002 0-0.003 0-0.071-0.057-0.128-0.128-0.128-0.010 0-0.021 0.001-0.030 0.004l0.001-0c-0.026 0.006-0.049 0.018-0.067 0.036v0c-0.413 0.445-1.077 0.767-2.143 0.767-1.567 0-2.6-0.809-2.6-2.209zM33.919 17.089v-0.328l-1.785 0.093c-0.94 0.048-1.487 0.435-1.487 1.088 0 0.592 0.501 0.92 1.379 0.92 1.191 0 1.893-0.64 1.893-1.773zM37.007 23.223v-1.225c0.001-0.081 0.057-0.148 0.132-0.166l0.001-0c0.013-0.004 0.028-0.006 0.044-0.006 0.011 0 0.022 0.001 0.033 0.003l-0.001-0c0.211 0.040 0.424 0.059 0.639 0.059 0.026 0.002 0.057 0.002 0.089 0.002 0.738 0 1.363-0.488 1.568-1.159l0.003-0.012 0.089-0.28c0.006-0.018 0.010-0.038 0.010-0.059s-0.004-0.042-0.011-0.061l0 0.001-2.86-7.293c-0.008-0.020-0.013-0.043-0.013-0.067 0-0.096 0.078-0.173 0.173-0.173 0.001 0 0.002 0 0.003 0h1.386c0.075 0 0.138 0.047 0.164 0.112l0 0.001 1.941 5.147c0.025 0.068 0.089 0.116 0.165 0.116 0.001 0 0.002 0 0.002 0h-0c0.076-0 0.141-0.048 0.166-0.116l0-0.001 1.687-5.131c0.023-0.070 0.088-0.12 0.165-0.12 0.001 0 0.002 0 0.003 0h1.434c0.090 0.001 0.164 0.067 0.176 0.154l0 0.001c0.001 0.006 0.001 0.013 0.001 0.020 0 0.023-0.004 0.045-0.012 0.065l0-0.001-3.060 8.101c-0.704 1.884-1.911 2.364-3.24 2.364-0.021 0.001-0.046 0.001-0.071 0.001-0.241 0-0.474-0.032-0.695-0.093l0.018 0.004c-0.078-0.020-0.134-0.089-0.134-0.171 0-0.006 0-0.011 0.001-0.016l-0 0.001h0.001zM11.427 8.533c-0.016-0-0.035-0-0.053-0-1.877 0-3.586 0.724-4.862 1.907l0.005-0.004c-0.062 0.057-0.101 0.138-0.101 0.228 0 0.070 0.023 0.134 0.063 0.186l-0.001-0.001 0.824 1.12c0.058 0.080 0.151 0.132 0.256 0.132 0.089 0 0.169-0.037 0.226-0.096l0-0c0.921-0.915 2.19-1.48 3.592-1.48 0.021 0 0.041 0 0.062 0l-0.003-0c2.827 0 4.303 2.112 4.303 4.2 0 2.267-1.551 3.864-3.78 3.895-1.723 0-3.021-1.133-3.021-2.632 0.003-0.796 0.371-1.505 0.946-1.97l0.005-0.004c0.069-0.057 0.113-0.142 0.113-0.238 0-0.074-0.026-0.141-0.069-0.194l0 0.001-0.867-1.087c-0.058-0.074-0.147-0.121-0.248-0.121-0.078 0-0.15 0.028-0.205 0.076l0-0c-0.525 0.423-0.948 0.95-1.244 1.55l-0.012 0.027c-0.283 0.573-0.449 1.247-0.449 1.96v0c0 2.58 2.207 4.603 5.033 4.619h0.040c3.356-0.043 5.783-2.512 5.783-5.887 0-2.996-2.223-6.187-6.336-6.187z"></path>
</symbol>
<symbol id="icon-persone" viewBox="0 0 32 32">
<path d="M31.040 16c0-0.001 0-0.002 0-0.003 0-8.305-6.733-15.038-15.038-15.038-4.723 0-8.938 2.178-11.695 5.584l-0.022 0.028c-2.070 2.555-3.323 5.846-3.323 9.43 0 8.281 6.692 14.999 14.964 15.040h0.004c0.018 0 0.039 0 0.060 0 4.027 0 7.684-1.585 10.381-4.165l-0.006 0.005c0.062-0.042 0.115-0.092 0.159-0.149l0.001-0.002c2.787-2.726 4.516-6.525 4.516-10.727 0-0.001 0-0.001 0-0.002v0zM16 2.24c7.595 0.006 13.75 6.164 13.75 13.76 0 3.554-1.347 6.793-3.559 9.235l0.010-0.012c-1.441-2.814-3.941-4.914-6.96-5.795l-0.080-0.020c1.996-1.132 3.321-3.243 3.321-5.663 0-3.584-2.905-6.489-6.489-6.489s-6.489 2.905-6.489 6.489c0 2.42 1.325 4.531 3.289 5.646l0.032 0.017c-3.1 0.901-5.599 3.002-7.010 5.753l-0.030 0.064c-2.199-2.411-3.545-5.633-3.545-9.168 0-0.020 0-0.040 0-0.060v0.003c0-7.599 6.161-13.76 13.76-13.76v0zM16 18.96c-2.877 0-5.21-2.332-5.21-5.21s2.332-5.21 5.21-5.21v0c2.877 0 5.21 2.332 5.21 5.21s-2.332 5.21-5.21 5.21v0zM6.759 26.188c1.639-3.536 5.159-5.945 9.241-5.945s7.602 2.409 9.215 5.882l0.026 0.063c-2.43 2.216-5.677 3.573-9.241 3.573s-6.811-1.357-9.252-3.583l0.011 0.010z"></path>
</symbol>
<symbol id="icon-v" viewBox="0 0 51 32">
<path fill="#000" style="fill: var(--color1, #000)" opacity="0.07" d="M46.667 0h-42.667c-2.209 0-4 1.791-4 4v0 24c0 2.209 1.791 4 4 4v0h42.667c2.209 0 4-1.791 4-4v0-24c0-2.209-1.791-4-4-4v0z"></path>
<path fill="#3d95ce" style="fill: var(--color16, #3d95ce)" d="M46.667 1.333c1.467 0 2.667 1.2 2.667 2.667v24c0 1.467-1.2 2.667-2.667 2.667h-42.667c-1.467 0-2.667-1.2-2.667-2.667v-24c0-1.467 1.2-2.667 2.667-2.667h42.667z"></path>
<path fill="#fff" style="fill: var(--color3, #fff)" d="M32.9 11.147c0 4.085-3.409 9.393-6.177 13.12h-6.32l-2.536-15.507 5.535-0.536 1.34 11.033c1.253-2.088 2.799-5.367 2.799-7.603 0-1.224-0.205-2.057-0.525-2.744l5.040-1.044c0.583 0.984 0.845 1.999 0.845 3.28z"></path>
</symbol>
<symbol id="icon-visa" viewBox="0 0 51 32">
<path fill="#000" style="fill: var(--color1, #000)" opacity="0.07" d="M46.667 0h-42.667c-2.267 0-4 1.733-4 4v24c0 2.267 1.867 4 4 4h42.667c2.267 0 4-1.733 4-4v-24c0-2.267-1.867-4-4-4z"></path>
<path fill="#fff" style="fill: var(--color3, #fff)" d="M46.667 1.333c1.467 0 2.667 1.2 2.667 2.667v24c0 1.467-1.2 2.667-2.667 2.667h-42.667c-1.467 0-2.667-1.2-2.667-2.667v-24c0-1.467 1.2-2.667 2.667-2.667h42.667z"></path>
<path fill="#142688" style="fill: var(--color17, #142688)" d="M37.733 13.467h-0.4c-0.533 1.333-0.933 2-1.333 4h2.533c-0.4-2-0.4-2.933-0.8-4zM41.6 21.333h-2.267c-0.133 0-0.133 0-0.267-0.133l-0.267-1.2-0.133-0.267h-3.2c-0.133 0-0.267 0-0.267 0.267l-0.4 1.2c0 0.133-0.133 0.133-0.133 0.133h-2.8l0.267-0.667 3.867-9.067c0-0.667 0.4-0.933 1.067-0.933h2c0.133 0 0.267 0 0.267 0.267l1.867 8.667c0.133 0.533 0.267 0.933 0.267 1.467 0.133 0.133 0.133 0.133 0.133 0.267zM23.733 20.933l0.533-2.4c0.133 0 0.267 0.133 0.267 0.133 0.933 0.4 1.867 0.667 2.8 0.533 0.267 0 0.667-0.133 0.933-0.267 0.667-0.267 0.667-0.933 0.133-1.467-0.267-0.267-0.667-0.4-1.067-0.667-0.533-0.267-1.067-0.533-1.467-0.933-1.6-1.333-1.067-3.2-0.133-4.133 0.8-0.533 1.2-1.067 2.267-1.067 1.6 0 3.333 0 4.133 0.267h0.133c-0.133 0.8-0.267 1.467-0.533 2.267-0.667-0.267-1.333-0.533-2-0.533-0.4 0-0.8 0-1.2 0.133-0.267 0-0.4 0.133-0.533 0.267-0.267 0.267-0.267 0.667 0 0.933l0.667 0.533c0.533 0.267 1.067 0.533 1.467 0.8 0.667 0.4 1.333 1.067 1.467 1.867 0.267 1.2-0.133 2.267-1.2 3.067-0.667 0.533-0.933 0.8-1.867 0.8-1.867 0-3.333 0.133-4.533-0.267-0.133 0.267-0.133 0.267-0.267 0.133zM19.067 21.333c0.133-0.933 0.133-0.933 0.267-1.333 0.667-2.933 1.333-6 1.867-8.933 0.133-0.267 0.133-0.4 0.4-0.4h2.4c-0.267 1.6-0.533 2.8-0.933 4.267-0.4 2-0.8 4-1.333 6 0 0.267-0.133 0.267-0.4 0.267l-2.267 0.133zM6.667 10.933c0-0.133 0.267-0.267 0.4-0.267h4.533c0.667 0 1.2 0.4 1.333 1.067l1.2 5.867c0 0.133 0 0.133 0.133 0.267 0-0.133 0.133-0.133 0.133-0.133l2.8-6.8c-0.133-0.133 0-0.267 0.133-0.267h2.8c0 0.133 0 0.133-0.133 0.267l-4.133 9.733c-0.133 0.267-0.133 0.4-0.267 0.533s-0.4 0-0.667 0h-2c-0.133 0-0.267 0-0.267-0.267l-2.133-8.267c-0.267-0.267-0.667-0.667-1.2-0.8-0.8-0.4-2.267-0.667-2.533-0.667l-0.133-0.267z"></path>
</symbol>
</defs>
</svg>
